<?xml version="1.0" standalone="no"?>
<!DOCTYPE svg PUBLIC "-//W3C//DTD SVG 20010904//EN"
 "http://www.w3.org/TR/2001/REC-SVG-20010904/DTD/svg10.dtd">
<svg version="1.0" xmlns="http://www.w3.org/2000/svg"
 width="871.000000pt" height="871.000000pt" viewBox="0 0 871.000000 871.000000"
 preserveAspectRatio="xMidYMid meet">
<metadata>
Created by potrace 1.11, written by Peter Selinger 2001-2013
</metadata>
<g transform="translate(0.000000,871.000000) scale(0.100000,-0.100000)"
fill="#000000" stroke="none">
<path d="M4315 8698 c-11 -6 -23 -16 -27 -22 -4 -6 -8 -7 -8 -3 0 4 -17 -4
-37 -18 -21 -14 -43 -25 -50 -25 -7 0 -13 -4 -13 -9 0 -5 -8 -11 -17 -14 -18
-6 -64 -32 -156 -88 -26 -16 -52 -29 -57 -29 -6 0 -10 -4 -10 -10 0 -5 -5 -10
-10 -10 -6 0 -48 -22 -93 -49 -75 -44 -454 -262 -537 -309 -19 -10 -59 -33
-88 -51 -29 -17 -57 -31 -62 -31 -6 0 -10 -3 -10 -8 0 -4 -15 -13 -32 -21 -18
-8 -40 -19 -48 -26 -8 -7 -40 -25 -70 -41 -30 -16 -59 -33 -65 -37 -22 -17
-218 -127 -227 -127 -4 0 -8 -4 -8 -9 0 -5 -12 -14 -27 -20 -16 -6 -50 -24
-78 -41 -27 -17 -59 -35 -70 -40 -11 -6 -27 -14 -35 -20 -30 -19 -172 -100
-176 -100 -2 0 -21 -11 -42 -24 -51 -33 -236 -141 -242 -141 -3 0 -16 -8 -30
-17 -29 -18 -259 -150 -344 -197 -32 -18 -79 -46 -104 -62 -25 -16 -52 -29
-59 -29 -7 0 -13 -4 -13 -9 0 -5 -17 -17 -37 -27 -21 -9 -71 -37 -111 -61 -41
-23 -78 -43 -83 -43 -5 0 -9 -3 -9 -8 0 -4 -15 -13 -33 -21 -17 -8 -34 -17
-37 -21 -3 -4 -18 -13 -35 -22 -16 -8 -133 -75 -260 -148 -126 -73 -242 -140
-257 -147 l-28 -14 0 -2193 0 -2193 23 -11 c45 -23 127 -69 139 -79 7 -6 45
-27 83 -48 39 -21 87 -49 108 -62 21 -13 48 -28 60 -34 12 -5 40 -21 62 -34
22 -14 47 -28 55 -32 8 -4 43 -24 78 -45 34 -21 64 -38 66 -38 2 0 34 -18 70
-40 36 -22 68 -40 70 -40 2 0 50 -27 106 -60 56 -33 106 -60 111 -60 5 0 9 -4
9 -9 0 -5 8 -11 18 -14 15 -5 52 -25 162 -88 14 -8 27 -16 30 -19 3 -3 16 -11
30 -17 14 -7 48 -26 75 -42 28 -16 66 -38 85 -49 36 -20 323 -184 440 -252 36
-21 68 -37 71 -36 4 0 15 -6 25 -15 11 -9 39 -27 64 -40 25 -13 48 -28 51 -32
3 -5 8 -7 10 -6 2 2 15 -4 29 -13 62 -39 152 -88 161 -88 5 0 9 -4 9 -10 0 -5
5 -10 11 -10 5 0 54 -26 107 -57 53 -32 100 -57 104 -56 3 1 12 -4 18 -12 7
-8 19 -15 26 -15 8 0 14 -4 14 -10 0 -5 4 -10 9 -10 5 0 127 -67 271 -150 144
-82 265 -150 269 -150 4 0 16 -8 27 -17 10 -10 35 -26 54 -35 43 -21 133 -71
140 -78 3 -3 25 -16 50 -29 25 -13 53 -31 64 -40 10 -9 19 -14 20 -12 1 6 95
-47 119 -67 9 -8 17 -11 17 -7 0 4 8 1 18 -7 9 -8 46 -31 82 -51 l66 -35 57
34 c32 19 62 34 67 34 6 0 10 3 10 8 0 4 23 18 50 31 28 14 50 29 50 33 0 4 3
7 8 6 7 -2 120 60 194 108 21 13 40 24 43 24 3 0 35 18 71 40 36 22 67 40 69
40 2 0 36 19 77 43 40 24 93 55 118 69 75 43 240 137 340 197 52 30 97 56 100
56 3 0 16 8 30 17 65 41 291 168 300 168 5 0 10 4 10 9 0 5 8 11 18 15 9 3 24
10 32 16 39 26 172 100 180 100 6 0 10 5 10 10 0 6 5 10 11 10 8 0 159 84 269
150 8 5 60 35 115 66 55 32 164 95 243 141 79 45 147 83 152 83 6 0 10 5 10
10 0 6 4 10 9 10 10 0 279 153 298 170 7 5 19 10 27 10 8 0 16 3 18 8 4 9 147
92 159 92 5 0 9 3 9 8 0 4 19 16 43 27 23 11 44 22 47 25 10 10 46 31 73 41
15 6 27 15 27 20 0 5 4 9 9 9 6 0 60 29 122 65 61 36 115 65 120 65 4 0 14 6
21 13 7 6 38 25 68 41 30 16 59 36 64 45 7 11 13 4279 7 4367 -1 11 -156 104
-173 104 -4 0 -8 3 -8 8 0 4 -15 13 -32 21 -18 8 -40 19 -48 26 -8 7 -40 25
-70 41 -30 16 -58 33 -61 37 -3 5 -10 9 -15 9 -5 1 -18 6 -29 13 -16 11 -358
206 -479 274 -156 89 -514 293 -526 301 -37 23 -124 70 -132 70 -4 0 -8 5 -8
10 0 6 -4 10 -9 10 -5 0 -49 23 -98 51 -48 29 -113 65 -143 82 -30 16 -63 37
-72 45 -10 8 -18 11 -18 7 0 -4 -8 -1 -17 7 -10 9 -34 24 -53 33 -19 10 -37
21 -40 24 -3 3 -25 16 -50 29 -72 37 -125 67 -130 72 -3 3 -25 16 -50 29 -25
13 -52 30 -60 37 -8 7 -19 13 -23 13 -4 0 -34 16 -66 35 -32 20 -64 36 -70 36
-6 0 -11 5 -11 10 0 6 -7 10 -15 10 -8 0 -15 5 -15 10 0 6 -5 10 -11 10 -7 0
-60 28 -118 61 -58 34 -131 75 -161 92 -30 16 -63 37 -74 46 -10 9 -20 14 -22
11 -2 -3 -13 3 -24 13 -11 9 -23 17 -26 17 -3 0 -46 24 -97 53 -51 29 -99 56
-107 60 -8 4 -24 13 -35 20 -67 41 -147 87 -150 87 -3 0 -33 17 -67 38 -35 21
-70 41 -78 45 -8 4 -33 18 -55 31 -22 14 -56 33 -75 42 -19 10 -46 25 -60 35
-26 17 -99 59 -103 59 -1 0 -11 -6 -22 -12z"/>
</g>
</svg>
